<svg xmlns="http://www.w3.org/2000/svg" xmlns:xlink="http://www.w3.org/1999/xlink" fill="none" version="1.1" width="28" height="28" viewBox="0 0 28 28"><clipPath id="master_svg0_2175_68091"><rect x="6" y="5.999537467956543" width="16" height="15.486881256103516" rx="0"/></clipPath><g style="mix-blend-mode:passthrough"><g><g style="mix-blend-mode:passthrough"><rect x="0" y="0" width="28" height="28" rx="4" fill="#FFFFFF" fill-opacity="1"/></g><g style="mix-blend-mode:passthrough"><g><g style="mix-blend-mode:passthrough"></g><g clip-path="url(#master_svg0_2175_68091)"><g><g><g><g><path d="M9.157011978515625,14.113795280456543L8.926177978515625,14.119696650456543L8.926177978515625,14.119905910456543L9.157011978515625,14.113795280456543Z" fill="#616E7D" fill-opacity="1"/><path d="M10.154181103515626,17.844113092956544C9.150981103515626,16.839593092956544,8.585811103515624,15.644883092956544,8.472621103515625,14.290553092956543L7.076070103515625,14.446751092956543L7.057294103515625,14.448733092956543L7.038402103515625,14.449457092956543C6.929294103515625,14.452932092956543,6.785947103515625,14.458763092956543,6.644163203515625,14.476139092956544C6.613725803515625,14.479731092956543,6.583428503515625,14.484162092956543,6.553131103515625,14.488594092956543C6.731253103515625,16.271613092956542,7.519102103515625,17.939483092956543,8.788981103515624,19.209343092956544C10.257151103515625,20.67779309295654,12.209321103515624,21.48626309295654,14.285651103515626,21.48626309295654C16.243441103515625,21.48626309295654,18.090531103515623,20.766733092956542,19.525831103515625,19.453563092956543L18.158431103515625,18.086263092956543C17.090831103515626,19.03385309295654,15.730481103515626,19.55299309295654,14.289481103515625,19.55299309295654C12.724881103515624,19.55299309295654,11.256311103515625,18.946113092956544,10.154181103515626,17.844113092956544Z" fill-rule="evenodd" fill="#000000" fill-opacity="1"/><path d="M14.226054541015625,5.999537467956543C12.149324541015625,5.999537467956543,10.197694541015625,6.808050467956543,8.729520541015624,8.276157467956542C8.556785541015625,8.448707467956543,8.393893541015625,8.628317467956542,8.239654541015625,8.814257467956542L9.615744541015625,10.190487467956544C9.764734541015624,9.998927467956543,9.921874541015626,9.813977467956542,10.094744541015626,9.641337467956543C11.196714541015625,8.539717467956542,12.662534541015624,7.932807467956543,14.222254541015625,7.932597467956543C15.786964541015625,7.932807467956543,17.255534541015624,8.539717467956542,18.357754541015623,9.641337467956543C19.421954541015623,10.705937467956543,20.023754541015627,12.113167467956544,20.062154541015623,13.618197467956543C20.701554541015625,13.513217467956544,21.342654541015627,13.410457467956544,21.983654541015625,13.307667467956543C21.871154541015628,11.405767467956544,21.074054541015627,9.627827467956543,19.722754541015625,8.276157467956542C18.254554541015626,6.808050467956543,16.302814541015625,5.999537467956543,14.226874541015626,5.999537467956543L14.226054541015625,5.999537467956543Z" fill-rule="evenodd" fill="#000000" fill-opacity="1"/><path d="M6.820846291015625,7.396021842956543L6.016998291015625,12.834711842956544L11.441538291015625,12.016411842956543L6.820846291015625,7.396021842956543Z" fill="#000000" fill-opacity="1"/><path d="M18.158444228515624,18.08636496795654L20.925864228515625,20.853764967956543L21.744034228515623,15.429224967956543L16.305084228515625,16.23309696795654L18.158444228515624,18.08636496795654Z" fill="#000000" fill-opacity="1"/></g></g></g></g></g></g></g></g></g></svg>