<svg xmlns="http://www.w3.org/2000/svg" xmlns:xlink="http://www.w3.org/1999/xlink" fill="none" version="1.1" width="28" height="28" viewBox="0 0 28 28"><clipPath id="master_svg0_2175_68115"><rect x="6" y="6" width="15.975902557373047" height="15.999999046325684" rx="0"/></clipPath><g style="mix-blend-mode:passthrough"><g><g style="mix-blend-mode:passthrough"><rect x="0" y="0" width="28" height="28" rx="4" fill="#FFFFFF" fill-opacity="1"/></g><g style="mix-blend-mode:passthrough"><g><g style="mix-blend-mode:passthrough"></g><g clip-path="url(#master_svg0_2175_68115)"><g><g><g><path d="M8.707919479972839,14.3828125L8.46943747997284,14.3889094L8.46943747997284,14.38912559L8.707919479972839,14.3828125Z" fill="#000000" fill-opacity="1"/><path d="M9.738625604972839,18.2367296875C8.70219560497284,17.198919687500002,8.11828560497284,15.9646296875,8.001345604972839,14.5654296875L6.558530604972839,14.7268026875L6.539132604972839,14.7288506875L6.51961460497284,14.7295976875C6.40689160497284,14.7331886875,6.258795604972839,14.7392126875,6.112313804972839,14.7571646875C6.08086800497284,14.7608756875,6.049566804972839,14.7654536875,6.018265604972839,14.7700316875C6.202289604972839,16.6121296875,7.016241604972839,18.3352596875,8.328195604972839,19.6471896875C9.84501560497284,21.164299687499998,11.861855604972838,21.9995496875,14.00698560497284,21.9995496875C16.02966560497284,21.9995496875,17.937965604972838,21.2561796875,19.42076560497284,19.8994996875L18.008165604972838,18.4868996875C16.90516560497284,19.4658896875,15.49968560497284,20.002229687499998,14.01093560497284,20.002229687499998C12.394505604972839,20.002229687499998,10.877275604972839,19.3752396875,9.738625604972839,18.2367296875Z" fill-rule="evenodd" fill="#000000" fill-opacity="1"/><path d="M13.94520310497284,6C11.79965310497284,6,9.783373104972839,6.835301,8.266549104972839,8.35205C8.088092104972839,8.53031,7.919802104972839,8.71588,7.760453104972839,8.90798L9.18214310497284,10.32981C9.336063104972839,10.1319,9.498403104972839,9.94082,9.67700310497284,9.76246C10.81549310497284,8.62434,12.32987310497284,7.99733,13.94127310497284,7.99711C15.55782310497284,7.99733,17.075053104972838,8.62434,18.21385310497284,9.76246C19.313253104972837,10.86234,19.935053104972837,12.316189999999999,19.974653104972838,13.87108C20.63525310497284,13.76263,21.297653104972838,13.65646,21.95975310497284,13.55026C21.84355310497284,11.58535,21.02005310497284,9.74851,19.624053104972838,8.35205C18.107153104972838,6.835301,16.09076310497284,6,13.94604310497284,6L13.94520310497284,6Z" fill-rule="evenodd" fill="#000000" fill-opacity="1"/></g><ellipse cx="14.0132075548172" cy="13.98810601234436" rx="3.2820513248443604" ry="3.2820513248443604" fill="#000000" fill-opacity="1"/></g></g></g></g></g></g></g></svg>