<svg xmlns="http://www.w3.org/2000/svg" xmlns:xlink="http://www.w3.org/1999/xlink" fill="none" version="1.1" width="16" height="16" viewBox="0 0 16 16"><clipPath id="master_svg0_2175_68168"><rect x="0" y="4" width="16" height="10.36363697052002" rx="0"/></clipPath><g style="mix-blend-mode:passthrough"><g><g style="mix-blend-mode:passthrough"></g><g clip-path="url(#master_svg0_2175_68168)"><g><g><g><g><path d="M5.60626220703125,14.19866732421875L14.26026220703125,14.19866732421875L14.26026220703125,12.91375732421875L5.60626220703125,12.91375732421875L5.60626220703125,14.19866732421875Z" fill="#FFFFFF" fill-opacity="1"/><path d="M15.71905283203125,4.83201701171875C15.64735283203125,4.72747101171875,15.55395283203125,4.64492601171875,15.44955283203125,4.57528901171875C15.44865283203125,4.57474401171875,14.08355283203125,4.088562011718739,13.32215283203125,4.088562011718739C12.16225283203125,4.088562011718739,11.29425283203125,4.54165301171875,10.32775283203125,5.11492201171875C9.97284283203125,5.32565201171875,9.56484283203125,5.56747201171875,9.13029283203125,5.82529201171875L9.11684283203125,5.82783201171875L4.91447283203125,5.10583201171875C4.84720283203125,5.09438201171875,4.77775283203125,5.10311201171875,4.71556283203125,5.13147201171875L4.04720283203125,5.43456201171875C3.88411283203125,5.50856201171875,3.88138283203125,5.73911201171875,4.04265283203125,5.81711201171875L6.82193283203125,7.15911201171875L6.82320283203125,7.194012011718749Q5.27029283203125,8.11511201171875,3.94011283203125,8.90420201171875L3.89684283203125,8.92983201171875C3.35429283203125,9.24238201171875,2.71247283203125,9.34092201171875,2.0984728320312502,9.20183201171875L0.6119298320312501,8.86511201171875C0.5366568320312499,8.848202011718751,0.45683883203125,8.84765201171875,0.38411183203125,8.87365201171875C0.11283903203125001,8.97074201171875,0.045384532031249994,9.31838201171875,0.25447583203125,9.51038201171875L1.92393283203125,11.04165201171875C2.18538283203125,11.281472011718751,2.56156283203125,11.349292011718749,2.89029283203125,11.21601201171875L3.72029283203125,10.87892201171875L15.10535283203125,6.08583201171875C15.76615283203125,5.81783201171875,16.02245283203125,5.27347201171875,15.71905283203125,4.83201701171875Z" fill-rule="evenodd" fill="#FFFFFF" fill-opacity="1"/></g></g></g></g></g></g></g></svg>