<svg xmlns="http://www.w3.org/2000/svg" xmlns:xlink="http://www.w3.org/1999/xlink" fill="none" version="1.1" width="16" height="16" viewBox="0 0 16 16"><clipPath id="master_svg0_2175_68213" transform="matrix(-1,0,0,1,32,0)"><rect x="16" y="2" width="15" height="11.0625" rx="0"/></clipPath><g style="mix-blend-mode:passthrough"><g><g style="mix-blend-mode:passthrough"></g><g clip-path="url(#master_svg0_2175_68213)"><g transform="matrix(-1,0,0,1,32,0)"><g><g><g><path d="M21.89483642578125,12.79003271484375L30.81908642578125,12.79003271484375L30.81908642578125,11.46478271484375L21.89483642578125,11.46478271484375L21.89483642578125,12.79003271484375Z" fill="#FFFFFF" fill-opacity="1"/><path d="M16.01850442578125,10.34190833984375C15.99469187578125,10.21327833984375,16.00256687578125,10.08502833984375,16.02787942578125,9.95808833984375C16.02806692578125,9.956968339843751,16.66894142578125,8.60696833984375,17.22432142578125,8.05177833984375C18.06994142578125,7.20615833984375,19.03332142578125,6.90352833984375,20.15607142578125,6.61683833984375C20.56857142578125,6.51146833984375,21.04257142578125,6.39052833984375,21.54732142578125,6.26152833984375L21.55894142578125,6.25364833984375L24.09694142578125,2.66284033984375C24.13763142578125,2.60527733984375,24.19463142578125,2.56121533984375,24.26063142578125,2.53627733984375L24.96900142578125,2.27002733984375C25.14188142578125,2.20515233984375,25.31213142578125,2.37127733984375,25.25119142578125,2.54565233984375L24.20325142578125,5.55089833984375L24.22782142578125,5.577338339843751Q26.03191142578125,5.11664833984375,27.57731142578125,4.72196833984375L27.62761142578125,4.7092183398437495C28.25101142578125,4.54158833984375,28.79101142578125,4.14539833984375,29.13731142578125,3.59621833984375L29.97601142578125,2.26665233984375C30.01911142578125,2.19934033984375,30.075411425781247,2.14084023984375,30.14851142578125,2.10671523984375C30.416611425781248,1.97977773984375,30.71851142578125,2.18396533984375,30.70721142578125,2.47646533984375L30.60601142578125,4.81046833984375C30.59101142578125,5.17589833984375,30.366011425781252,5.49971833984375,30.02851142578125,5.64221833984375L29.17761142578125,6.00183833984375L17.38032142578125,10.80858833984375C16.70306742578125,11.09490833984375,16.11919142578125,10.88508833984375,16.01850442578125,10.34190833984375Z" fill-rule="evenodd" fill="#FFFFFF" fill-opacity="1"/></g></g></g></g></g></g></g></svg>