<svg xmlns="http://www.w3.org/2000/svg" xmlns:xlink="http://www.w3.org/1999/xlink" fill="none" version="1.1" width="16" height="10.09523868560791" viewBox="0 0 16 10.09523868560791"><clipPath id="master_svg0_2175_67975"><rect x="0" y="0" width="16" height="10.09523868560791" rx="0"/></clipPath><g clip-path="url(#master_svg0_2175_67975)"><g><g><g><g><path d="M4.1268722338867185,8.95359708984375C3.7558322338867187,8.95359708984375,3.455257233886719,8.65264708984375,3.455257233886719,8.28121708984375C3.455257233886719,7.91035708984375,3.7558322338867187,7.60979108984375,4.1268722338867185,7.60979108984375C4.498112233886719,7.60979108984375,4.799062233886719,7.91035708984375,4.799062233886719,8.28121708984375C4.799062233886719,8.65264708984375,4.498112233886719,8.95359708984375,4.1268722338867185,8.95359708984375ZM4.1268722338867185,6.73626708984375C3.273352233886719,6.73626708984375,2.5813522338867188,7.42750508984375,2.5813522338867188,8.28121708984375C2.5813522338867188,9.135507089843749,3.273352233886719,9.82712708984375,4.1268722338867185,9.82712708984375C4.980782233886719,9.82712708984375,5.672592233886719,9.135507089843749,5.672592233886719,8.28121708984375C5.672592233886719,7.42750508984375,4.980782233886719,6.73626708984375,4.1268722338867185,6.73626708984375Z" fill-rule="evenodd" fill="#FFFFFF" fill-opacity="1"/><path d="M11.030192546386719,8.95359708984375C10.658962546386718,8.95359708984375,10.35838754638672,8.65264708984375,10.35838754638672,8.28121708984375C10.35838754638672,7.91035708984375,10.658962546386718,7.60979108984375,11.030192546386719,7.60979108984375C11.401242546386719,7.60979108984375,11.702382546386719,7.91035708984375,11.702382546386719,8.28121708984375C11.702382546386719,8.65264708984375,11.401242546386719,8.95359708984375,11.030192546386719,8.95359708984375ZM11.030192546386719,6.73626708984375C10.176482546386719,6.73626708984375,9.484672546386719,7.42750508984375,9.484672546386719,8.28121708984375C9.484672546386719,9.135507089843749,10.176482546386719,9.82712708984375,11.030192546386719,9.82712708984375C11.88410254638672,9.82712708984375,12.575912546386718,9.135507089843749,12.575912546386718,8.28121708984375C12.575912546386718,7.42750508984375,11.88410254638672,6.73626708984375,11.030192546386719,6.73626708984375Z" fill-rule="evenodd" fill="#FFFFFF" fill-opacity="1"/><path d="M6.950182858886719,3.73100146484375L6.950182858886719,0.84109646484375L9.449422858886718,0.84109646484375C9.935892858886719,0.84109646484375,10.516692858886719,1.19481146484375,10.740492858886718,1.62643146484375L11.528492858886718,3.14052146484375C11.633792858886718,3.34376146484375,11.79779285888672,3.55157146484375,12.000692858886719,3.73100146484375L6.950182858886719,3.73100146484375ZM10.408892858886718,5.35252146484375C10.408892858886718,5.44852146484375,10.330192858886718,5.52738146484375,10.234192858886718,5.52738146484375L9.527322858886718,5.52738146484375C9.431322858886718,5.52738146484375,9.352852858886719,5.44852146484375,9.352852858886719,5.35252146484375L9.352852858886719,4.74091146484375C9.352852858886719,4.64510146484375,9.431322858886718,4.56605146484375,9.527322858886718,4.56605146484375L10.234192858886718,4.56605146484375C10.330192858886718,4.56605146484375,10.408892858886718,4.64510146484375,10.408892858886718,4.74091146484375L10.408892858886718,5.35252146484375ZM9.359702858886719,6.52071146484375C9.359702858886719,6.61671146484375,9.28123285888672,6.69519146484375,9.18523285888672,6.69519146484375L8.478372858886718,6.69519146484375C8.382182858886718,6.69519146484375,8.30370285888672,6.61671146484375,8.30370285888672,6.52071146484375L8.30370285888672,5.90910146484375C8.30370285888672,5.81310146484375,8.382182858886718,5.73424146484375,8.478372858886718,5.73424146484375L9.18523285888672,5.73424146484375C9.28123285888672,5.73424146484375,9.359702858886719,5.81310146484375,9.359702858886719,5.90910146484375L9.359702858886719,6.52071146484375ZM7.474942858886719,5.52738146484375C7.3789428588867185,5.52738146484375,7.300472858886719,5.44852146484375,7.300472858886719,5.35252146484375L7.300472858886719,4.74091146484375C7.300472858886719,4.64510146484375,7.3789428588867185,4.56605146484375,7.474942858886719,4.56605146484375L8.18199285888672,4.56605146484375C8.27799285888672,4.56605146484375,8.356662858886718,4.64510146484375,8.356662858886718,4.74091146484375L8.356662858886718,5.35252146484375C8.356662858886718,5.44852146484375,8.27799285888672,5.52738146484375,8.18199285888672,5.52738146484375L7.474942858886719,5.52738146484375ZM7.3530428588867185,6.52071146484375C7.3530428588867185,6.61671146484375,7.274562858886719,6.69519146484375,7.1785628588867185,6.69519146484375L6.471702858886719,6.69519146484375C6.375512858886719,6.69519146484375,6.297232858886718,6.61671146484375,6.297232858886718,6.52071146484375L6.297232858886718,5.90910146484375C6.297232858886718,5.81310146484375,6.375512858886719,5.73424146484375,6.471702858886719,5.73424146484375L7.1785628588867185,5.73424146484375C7.274562858886719,5.73424146484375,7.3530428588867185,5.81310146484375,7.3530428588867185,5.90910146484375L7.3530428588867185,6.52071146484375ZM6.161042858886718,5.52738146484375L5.4541828588867185,5.52738146484375C5.358182858886718,5.52738146484375,5.2797028588867185,5.44852146484375,5.2797028588867185,5.35252146484375L5.2797028588867185,4.74091146484375C5.2797028588867185,4.64510146484375,5.358182858886718,4.56605146484375,5.4541828588867185,4.56605146484375L6.161042858886718,4.56605146484375C6.257232858886718,4.56605146484375,6.335702858886719,4.64510146484375,6.335702858886719,4.74091146484375L6.335702858886719,5.35252146484375C6.335702858886719,5.44852146484375,6.257232858886718,5.52738146484375,6.161042858886718,5.52738146484375ZM2.8976128588867187,3.73100146484375C3.0627528588867188,3.47310146484375,3.152662858886719,3.19291146484375,3.1764728588867186,3.09843146484375L3.6591328588867187,1.67843146484375C3.8153228588867187,1.21824146484375,4.341232858886719,0.84109646484375,4.827702858886719,0.84109646484375L5.9111328588867185,0.84109646484375L5.9111328588867185,3.73100146484375L2.8976128588867187,3.73100146484375ZM13.92729285888672,3.98014146484375C13.25439285888672,3.80529146484375,12.67899285888672,3.26700146484375,12.414592858886719,2.75652146484375L11.48309285888672,0.96719246484375C11.218792858886719,0.45671546484375,10.532292858886718,0.03900146484375541,9.95723285888672,0.03900146484375541L4.493802858886719,0.03900146484375541C3.9189428588867186,0.03900146484375541,3.2974228588867187,0.48471546484375,3.1124728588867185,1.0285254648437498L2.5419928588867187,2.70795146484375C2.4858028588867187,2.92967146484375,2.1158928588867187,4.03710146484375,1.3440928588867187,4.03710146484375C0.7692308588867187,4.03710146484375,0.13799285888671875,4.79500146484375,0.13799285888671875,5.36967146484375L0.13799285888671875,7.35557146484375C0.13799285888671875,7.93081146484375,0.6084688588867188,8.40091146484375,1.1833228588867188,8.40091146484375L2.2585628588867186,8.40091146484375C2.256092858886719,8.36110146484375,2.2541828588867188,8.32167146484375,2.2541828588867188,8.28072146484375C2.2541828588867188,7.24852146484375,3.094752858886719,6.40757146484375,4.127702858886719,6.40757146484375C5.160852858886718,6.40757146484375,6.001232858886719,7.24852146484375,6.001232858886719,8.28072146484375C6.001232858886719,8.32167146484375,5.999512858886718,8.36110146484375,5.996852858886719,8.40091146484375L9.161422858886718,8.40091146484375C9.158942858886718,8.36110146484375,9.157232858886719,8.32167146484375,9.157232858886719,8.28072146484375C9.157232858886719,7.24852146484375,9.997612858886718,6.40757146484375,11.030592858886719,6.40757146484375C12.06369285888672,6.40757146484375,12.904092858886719,7.24852146484375,12.904092858886719,8.28072146484375C12.904092858886719,8.32167146484375,12.902392858886719,8.36110146484375,12.89989285888672,8.40091146484375L14.856692858886719,8.40091146484375C15.431692858886718,8.40091146484375,15.901992858886718,7.93081146484375,15.901992858886718,7.35557146484375L15.901992858886718,5.79786146484375C15.901992858886718,4.12567146484375,14.486192858886719,4.12567146484375,13.92729285888672,3.98014146484375Z" fill-rule="evenodd" fill="#FFFFFF" fill-opacity="1"/></g></g></g></g></g></svg>