<svg xmlns="http://www.w3.org/2000/svg" xmlns:xlink="http://www.w3.org/1999/xlink" fill="none" version="1.1" width="15.660170555114746" height="9.330116271972656" viewBox="0 0 15.660170555114746 9.330116271972656"><g transform="matrix(-1,0,0,1,31.320341110229492,0)"><g><path d="M21.515640555114746,0.217333C21.683800555114747,0.385825,21.755660555114744,0.614215,21.728530555114745,0.833544L21.720720555114745,0.87456L23.312510555114745,0.87456C23.576160555114747,0.87456,23.789080555114744,1.08863,23.789080555114744,1.3521C23.789080555114744,1.60577,23.591390555114746,1.81309,23.341810555114748,1.82866L23.312510555114745,1.82964L20.955090555114747,1.82964L19.964860555114747,2.8189L22.138690555114746,4.5728L24.691420555114746,4.5728L24.691420555114746,3.53862C24.691420555114746,3.14281,25.005260555114745,2.81682,25.39650055511475,2.79741L25.433610555114747,2.79643L29.52347055511475,2.79643C29.931670555114746,2.79643,30.262470555114746,3.0892,30.511770555114744,3.53862Q31.257270555114744,5.84791,31.316570555114744,6.26809L31.320370555114746,6.26809L31.320370555114746,6.80143C31.320370555114746,7.29235,30.922370555114746,7.69032,30.431470555114746,7.69032L29.480570555114745,7.69028C29.390670555114745,6.69358,28.553070555114743,5.91254,27.532970555114744,5.91254C26.512870555114745,5.91254,25.675170555114747,6.69358,25.585380555114746,7.69028L21.124990555114746,7.69028C21.035150555114747,6.69358,20.197490555114747,5.91254,19.177410555114747,5.91254C18.157320555114747,5.91254,17.319660555114744,6.69358,17.229830555114745,7.69028L16.549059555114745,7.69032C16.058139555114746,7.69032,15.660170555114746,7.29235,15.660170555114746,6.80143L15.660170555114746,6.26809L15.663616495114747,6.26802C15.678545855114747,6.11242,15.742219855114746,5.95685,15.859200555114747,5.82545L15.892429555114745,5.79023L20.466810555114748,0.217333C20.756940555114745,-0.0724444,21.225500555114746,-0.0724444,21.515640555114746,0.217333Z" fill-rule="evenodd" fill="#FFFFFF" fill-opacity="1"/><path d="M19.198543680114746,8.514828941802978C18.852053680114746,8.514828941802978,18.571518680114746,8.233938941802979,18.571518680114746,7.887808941802978C18.571518680114746,7.541318941802978,18.852053680114746,7.260782941802979,19.198543680114746,7.260782941802979C19.544673680114744,7.260782941802979,19.825563680114747,7.541318941802978,19.825563680114747,7.887808941802978C19.825563680114747,8.233938941802979,19.544673680114744,8.514828941802978,19.198543680114746,8.514828941802978ZM19.198543680114746,6.4458489418029785C18.401562680114747,6.4458489418029785,17.755873680114746,7.091004941802979,17.755873680114746,7.887808941802978C17.755873680114746,8.684958941802979,18.401562680114747,9.33011894180298,19.198543680114746,9.33011894180298C19.995343680114747,9.33011894180298,20.640853680114745,8.684958941802979,20.640853680114745,7.887808941802978C20.640853680114745,7.091004941802979,19.995343680114747,6.4458489418029785,19.198543680114746,6.4458489418029785Z" fill-rule="evenodd" fill="#FFFFFF" fill-opacity="1"/><path d="M27.595644617614745,8.514828941802978C27.249514617614746,8.514828941802978,26.968978617614745,8.233938941802979,26.968978617614745,7.887808941802978C26.968978617614745,7.541318941802978,27.249514617614746,7.260782941802979,27.595644617614745,7.260782941802979C27.942134617614744,7.260782941802979,28.223024617614747,7.541318941802978,28.223024617614747,7.887808941802978C28.223024617614747,8.233938941802979,27.942134617614744,8.514828941802978,27.595644617614745,8.514828941802978ZM27.595644617614745,6.4458489418029785C26.799201617614745,6.4458489418029785,26.153334617614746,7.091004941802979,26.153334617614746,7.887808941802978C26.153334617614746,8.684958941802979,26.799201617614745,9.33011894180298,27.595644617614745,9.33011894180298C28.392974617614748,9.33011894180298,29.038314617614745,8.684958941802979,29.038314617614745,7.887808941802978C29.038314617614745,7.091004941802979,28.392974617614748,6.4458489418029785,27.595644617614745,6.4458489418029785Z" fill-rule="evenodd" fill="#FFFFFF" fill-opacity="1"/></g></g></svg>