<svg xmlns="http://www.w3.org/2000/svg" xmlns:xlink="http://www.w3.org/1999/xlink" fill="none" version="1.1" width="16" height="10.536584854125977" viewBox="0 0 16 10.536584854125977"><clipPath id="master_svg0_2175_67864" transform="matrix(-1,0,0,1,32,0)"><rect x="16" y="0" width="15.999999046325684" height="10.536584854125977" rx="0"/></clipPath><g style="mix-blend-mode:passthrough"><g><g clip-path="url(#master_svg0_2175_67864)"><g transform="matrix(-1,0,0,1,32,0)"><g><g><g><path d="M19.78096555078125,4.067692973632813L20.24262455078125,3.2290569736328125C20.35403455078125,3.0194959736328126,20.63969455078125,2.8481789736328125,20.87696455078125,2.8481789736328125L28.14681455078125,2.8481789736328125C28.38447455078125,2.8481789736328125,28.57862455078125,3.0425209736328123,28.57862455078125,3.279792973632812L28.57862455078125,4.017352973632812C28.57862455078125,4.254612973632812,28.38447455078125,4.449152973632812,28.14681455078125,4.449152973632812L20.00964455078125,4.449152973632812C19.77257455078125,4.449152973632812,19.66935555078125,4.277442973632812,19.78096555078125,4.067692973632813ZM19.28964855078125,5.066522973632813L29.901014550781248,5.066522973632813C30.22801455078125,5.066522973632813,30.49551455078125,4.7988129736328125,30.49551455078125,4.471982973632812L30.49551455078125,2.8251549736328125C30.49551455078125,2.4981299736328126,30.22801455078125,2.2304229736328125,29.901014550781248,2.2304229736328125L20.80008455078125,2.2304229736328125C20.47286455078125,2.2304229736328125,20.07950455078125,2.4667159736328124,19.92574455078125,2.7551059736328125L18.97452615078125,4.541642973632813C18.82077025078125,4.830422973632812,18.96242875078125,5.066522973632813,19.28964855078125,5.066522973632813Z" fill-rule="evenodd" fill="#FFFFFF" fill-opacity="1"/><path d="M21.99473992578125,1.8918782861328125L28.98224892578125,1.8918782861328125C29.19766892578125,1.8918782861328125,29.37405892578125,1.7152982861328125,29.37405892578125,1.5000782861328126L29.37405892578125,0.4159782861328125C29.37405892578125,0.2005632861328125,29.19766892578125,0.0243682861328125,28.98224892578125,0.0243682861328125L22.98927892578125,0.0243682861328125C22.77405892578125,0.0243682861328125,22.51513092578125,0.1798802861328125,22.41386192578125,0.3697342861328125L21.78752062578125,1.5461282861328125C21.68586212578125,1.7361682861328125,21.77932552578125,1.8918782861328125,21.99473992578125,1.8918782861328125Z" fill-rule="evenodd" fill="#FFFFFF" fill-opacity="1"/><path d="M29.177736425781248,7.946322036132813C28.77303642578125,7.946322036132813,28.444636425781248,7.618322036132812,28.444636425781248,7.213252036132813C28.444636425781248,6.808172036132812,28.77303642578125,6.480172036132813,29.177736425781248,6.480172036132813C29.58273642578125,6.480172036132813,29.910736425781252,6.808172036132812,29.910736425781252,7.213252036132813C29.910736425781252,7.618322036132812,29.58273642578125,7.946322036132813,29.177736425781248,7.946322036132813ZM27.02003642578125,7.946322036132813C26.61513642578125,7.946322036132813,26.28673642578125,7.618322036132812,26.28673642578125,7.213252036132813C26.28673642578125,6.808172036132812,26.61513642578125,6.480172036132813,27.02003642578125,6.480172036132813C27.424936425781247,6.480172036132813,27.75333642578125,6.808172036132812,27.75333642578125,7.213252036132813C27.75333642578125,7.618322036132812,27.424936425781247,7.946322036132813,27.02003642578125,7.946322036132813ZM24.86219642578125,7.946322036132813C24.45750642578125,7.946322036132813,24.12911642578125,7.618322036132812,24.12911642578125,7.213252036132813C24.12911642578125,6.808172036132812,24.45750642578125,6.480172036132813,24.86219642578125,6.480172036132813C25.267066425781252,6.480172036132813,25.59565642578125,6.808172036132812,25.59565642578125,7.213252036132813C25.59565642578125,7.618322036132812,25.267066425781252,7.946322036132813,24.86219642578125,7.946322036132813ZM22.70453642578125,7.946322036132813C22.29945642578125,7.946322036132813,21.97145642578125,7.618322036132812,21.97145642578125,7.213252036132813C21.97145642578125,6.808172036132812,22.29945642578125,6.480172036132813,22.70453642578125,6.480172036132813C23.10980642578125,6.480172036132813,23.43780642578125,6.808172036132812,23.43780642578125,7.213252036132813C23.43780642578125,7.618322036132812,23.10980642578125,7.946322036132813,22.70453642578125,7.946322036132813ZM20.54687642578125,7.946322036132813C20.14199642578125,7.946322036132813,19.81360642578125,7.618322036132812,19.81360642578125,7.213252036132813C19.81360642578125,6.808172036132812,20.14199642578125,6.480172036132813,20.54687642578125,6.480172036132813C20.95194642578125,6.480172036132813,21.28014642578125,6.808172036132812,21.28014642578125,7.213252036132813C21.28014642578125,7.618322036132812,20.95194642578125,7.946322036132813,20.54687642578125,7.946322036132813ZM31.224536425781253,5.4267120361328125L16.57575342578125,5.4267120361328125C16.14843632578125,5.4267120361328125,15.96248542578125,5.735785036132812,16.16326562578125,6.113541036132813L17.78199642578125,9.566812036132813C17.98277642578125,9.944372036132812,18.49653642578125,10.253642036132813,18.92443642578125,10.253642036132813L29.811436425781253,10.253642036132813C30.23933642578125,10.253642036132813,30.70613642578125,9.923692036132813,30.84873642578125,9.520562036132812L31.742936425781252,6.159980036132812C31.88543642578125,5.756468036132812,31.65243642578125,5.4267120361328125,31.224536425781253,5.4267120361328125Z" fill-rule="evenodd" fill="#FFFFFF" fill-opacity="1"/></g></g></g></g></g></g></g></svg>