<svg xmlns="http://www.w3.org/2000/svg" xmlns:xlink="http://www.w3.org/1999/xlink" fill="none" version="1.1" width="16" height="13.97468376159668" viewBox="0 0 16 13.97468376159668"><clipPath id="master_svg0_2175_67987"><rect x="0" y="0" width="16" height="13.97468376159668" rx="0"/></clipPath><g clip-path="url(#master_svg0_2175_67987)"><g><g><g><g><path d="M15.429629833984375,2.79163090625C15.387729833984375,2.69644090625,15.323029833984375,2.61320010625,15.237229833984374,2.54150390625C15.173829833984374,3.74879390625,12.418529833984374,5.86160390625,8.683079833984374,7.49522390625C4.947379833984375,9.12925390625,1.525405833984375,9.71679390625,0.595380663984375,8.94332390625C0.589709753984375,9.05512390625,0.606924933984375,9.159023906249999,0.648646533984375,9.25461390625C1.139582833984375,10.37826390625,4.846519833984375,9.841553906249999,8.928139833984375,8.05623390625C13.009929833984375,6.271733906250001,15.920129833984374,3.91466390625,15.429629833984375,2.79163090625Z" fill-rule="evenodd" fill="#FFFFFF" fill-opacity="1"/><path d="M5.784262646484375,9.56172976875C5.560062646484375,9.50826136875,5.334642646484375,9.64740066875,5.281572646484375,9.87200796875L4.682690646484375,12.39960296875C4.669120646484375,12.40426296875,4.656158646484375,12.40871296875,4.642791646484375,12.41479296875C4.289576646484375,12.56912296875,4.128361546484375,12.980872968749999,4.282893346484375,13.33428296875C4.437424646484375,13.68770296875,4.848969646484375,13.84892296875,5.202589646484375,13.69439296875C5.556002646484375,13.53985296875,5.717222646484375,13.12790296875,5.562692646484375,12.77469296875C5.541222646484375,12.72608296875,5.5146926464843755,12.681322968749999,5.484512646484375,12.64000296875L6.094542646484375,10.06502096875C6.147802646484375,9.84000796875,6.008662646484375,9.61499566875,5.784262646484375,9.56172976875Z" fill-rule="evenodd" fill="#FFFFFF" fill-opacity="1"/><path d="M10.578028896484374,10.88281359375L9.528709896484376,8.48301959375C9.436355896484375,8.27137389375,9.189874896484374,8.17456359375,8.978836896484374,8.26691829375C8.767393096484374,8.35927259375,8.670785996484375,8.60595659375,8.763139896484375,8.81739859375L9.811848896484374,11.21598359375C9.706532896484376,11.40089359375,9.685873896484376,11.63157359375,9.777618896484375,11.84200359375C9.932358896484375,12.19542359375,10.344098896484375,12.35623359375,10.697518896484375,12.20190359375C11.050738896484376,12.04737359375,11.212358896484375,11.635623593750001,11.057418896484375,11.28221359375C10.966078896484376,11.07319359375,10.784198896484375,10.93183359375,10.578028896484374,10.88281359375Z" fill-rule="evenodd" fill="#FFFFFF" fill-opacity="1"/><path d="M15.774531083984375,8.23474078125C15.620611083984375,7.88294078125,15.212501083984375,7.72213078125,14.860101083984375,7.87281078125L12.709821083984375,6.62724438125C12.509720083984375,6.51139578125,12.254530083984376,6.57964933125,12.138681583984376,6.77914278125C12.023440983984376,6.97904178125,12.091492083984376,7.23463578125,12.290986083984375,7.35028278125L14.441061083984374,8.59585078125C14.448761083984376,8.66269078125,14.466381083984375,8.72972078125,14.494931083984374,8.79453078125C14.649061083984375,9.14836078125,15.061211083984375,9.309980781250001,15.414431083984375,9.15504078125C15.768051083984375,9.00031078125,15.928861083984375,8.58836078125,15.774531083984375,8.23474078125Z" fill-rule="evenodd" fill="#FFFFFF" fill-opacity="1"/><path d="M5.860595458984375,1.03927778125C7.374725458984375,0.37699978125,9.062215458984374,0.89386078125,9.630115458984376,2.19310078125C9.786665458984375,2.55097078125,9.999735458984375,2.96900078125,9.807935458984375,3.30723078125C9.412995458984375,4.004750781249999,8.488645458984376,4.58520078125,7.584345458984375,4.98054078125C6.679835458984375,5.37609078125,5.625855458984375,5.66064078125,4.845505458984375,5.47695078125C4.466975458984375,5.38743078125,4.304745458984375,4.94753078125,4.148595458984375,4.58986078125C3.580285458984375,3.29062078125,4.346875458984375,1.70095078125,5.860595458984375,1.03927778125ZM8.469205458984375,7.00444078125C12.550645458984375,5.22014078125,15.461445458984375,2.86307078125,14.970245458984374,1.73983078125C14.633845458984375,0.97041778125,12.789845458984376,0.97953178125,10.350345458984375,1.63432078125C9.376745458984376,0.19330378125,7.375735458984375,-0.35312721875,5.593255458984375,0.42621478125C3.809965458984375,1.20576078125,2.852395458984375,3.04596078125,3.249155458984375,4.73892078125C1.1122394589843752,6.08535078125,-0.146697541015625,7.43300078125,0.189302558984375,8.20221078125C0.680441458984375,9.32606078125,4.387375458984375,8.78915078125,8.469205458984375,7.00444078125Z" fill-rule="evenodd" fill="#FFFFFF" fill-opacity="1"/></g></g></g></g></g></svg>