<svg xmlns="http://www.w3.org/2000/svg" xmlns:xlink="http://www.w3.org/1999/xlink" fill="none" version="1.1" width="14.764860153198242" height="11.743474006652832" viewBox="0 0 14.764860153198242 11.743474006652832"><g><g><g><path d="M14.3547,7.992028375L0.319375,7.194317645C0.0374468,7.178233175,-0.0803846,7.366546375,0.0580492,7.612691375L2.12425,11.295639375C2.26233,11.541969375,2.6066,11.743469375,2.88889,11.743469375L13.4977,11.743469375C13.7798,11.743469375,14.0628,11.518479375,14.1261,11.242869375L14.7521,8.521909375C14.8155,8.246489375,14.6364,8.008294375,14.3547,7.992028375Z" fill-rule="evenodd" fill="#FFFFFF" fill-opacity="1"/><path d="M1.3643726250000001,6.74777Q6.651285625,7.00152,6.666615625,6.99999C6.838925625,6.99999,6.978515625,6.88653,6.978515625,6.74662L6.978515625,0.253239C6.978515625,0.11345,6.838925625,0,6.666615625,0C6.514855625,0,4.579455625,1.28226,2.593145625,3.82351C0.996040825,5.86702,0.5782286249999999,6.68122,1.3643726250000001,6.74777Z" fill-rule="evenodd" fill="#FFFFFF" fill-opacity="1"/><path d="M8.344205625,7.0995Q8.438471625,7.10338,13.588595625,7.29918C13.948595625,7.31257,14.084105625,7.16,13.889675624999999,6.96005L8.710300625,1.241036Q8.527252625,1,8.302963625,1C8.101021625,1,7.978515625,1.10787,7.978515625,1.241036Q7.978515625,5.45575,7.978515625,6.86074C7.978515625,6.99163,8.142872625,7.09134,8.344205625,7.0995Z" fill-rule="evenodd" fill="#FFFFFF" fill-opacity="1"/></g></g></g></svg>