<svg xmlns="http://www.w3.org/2000/svg" xmlns:xlink="http://www.w3.org/1999/xlink" fill="none" version="1.1" width="16" height="16" viewBox="0 0 16 16"><clipPath id="master_svg0_2175_67922"><rect x="1" y="1" width="14" height="14" rx="0"/></clipPath><g style="mix-blend-mode:passthrough"><g><g style="mix-blend-mode:passthrough"></g><g clip-path="url(#master_svg0_2175_67922)"><g><g><g><g><path d="M13.98048125,3.4416570166015625C13.83748125,3.5848370166015626,13.86418125,3.070197016601562,13.30908125,2.5152370166015627C12.77908125,1.9852870166015624,12.29008125,2.0377400166015622,12.43338125,1.8945670166015625C12.80298125,1.5249670166015625,13.21028125,1.5161940166015624,13.54878125,1.8546200166015625L14.03688125,2.3425670166015626C14.37478125,2.6808070166015625,14.35978125,3.0621670166015624,13.98048125,3.4416570166015625ZM14.40258125,1.9367540166015624L14.00438125,1.5389670166015625C13.45668125,0.9911000166015624,12.56038125,0.9911000166015624,12.01268125,1.5389670166015625L10.29364125,3.2576070166015625L4.38770125,2.4110770166015625C4.138681249999999,2.3757970166015623,3.78980125,2.4920870166015625,3.61228125,2.6697970166015628L3.09540125,3.1866770166015623C2.91751125,3.3641970166015627,2.9557712499999997,3.6021970166015627,3.18034125,3.7151270166015626L7.60807125,5.942997016601563L4.24844125,9.302437016601562L2.5268212500000002,9.178857016601562C2.27575125,9.160937016601563,1.92537625,9.291607016601562,1.7474832500000002,9.469127016601563L1.23078925,9.986007016601562C1.05308295,10.163717016601563,1.07996295,10.421317016601563,1.29089625,10.558327016601563L3.35002125,11.895467016601563C3.56095125,12.032467016601563,3.84543125,12.316767016601563,3.98244125,12.527467016601562L5.32756125,14.595367016601562C5.46457125,14.806067016601563,5.72217125,14.832767016601563,5.89988125,14.655267016601563L6.41676125,14.138267016601562C6.59428125,13.960667016601562,6.72532125,13.610167016601563,6.70759125,13.359667016601563L6.59428125,11.737167016601562L9.97687125,8.354167016601561L12.16008125,12.694567016601562C12.27308125,12.919267016601562,12.51108125,12.957767016601563,12.68878125,12.780067016601562L13.20568125,12.262767016601563C13.38318125,12.085067016601563,13.49998125,11.736167016601563,13.46478125,11.487567016601563L12.64488125,5.686327016601562L14.40288125,3.9286770166015623C14.95018125,3.3809970166015626,14.95018125,2.484807016601563,14.40258125,1.9367540166015624Z" fill-rule="evenodd" fill="#FFFFFF" fill-opacity="1"/></g></g></g></g></g></g></g></svg>