<svg xmlns="http://www.w3.org/2000/svg" xmlns:xlink="http://www.w3.org/1999/xlink" fill="none" version="1.1" width="5" height="9" viewBox="0 0 5 9"><g style="mix-blend-mode:passthrough"><g><g style="mix-blend-mode:passthrough"><path d="M14.37165,0.334482L9.871649999999999,5.33448Q9.8387,5.37109,9.79925,5.40056Q9.7598,5.43003,9.71536,5.45124Q9.67091,5.47245,9.62318,5.48459Q9.57546,5.49672,9.52628,5.49931Q9.4771,5.5019,9.42836,5.49484Q9.379629999999999,5.48779,9.3332,5.47136Q9.28678,5.45493,9.24445,5.42976Q9.20212,5.40459,9.16552,5.37165Q9.145959999999999,5.35404,9.128350000000001,5.33448L4.628353,0.334482L5.371647,-0.334482L9.871649999999999,4.66552L9.5,5L9.128350000000001,4.66552L13.62835,-0.334482L14.37165,0.334482Z" transform="matrix(0,1,-1,0,5,-5)" fill="#FFFFFF" fill-opacity="1"/></g></g></g></svg>