<svg xmlns="http://www.w3.org/2000/svg" xmlns:xlink="http://www.w3.org/1999/xlink" fill="none" version="1.1" width="28" height="28" viewBox="0 0 28 28"><g style="mix-blend-mode:passthrough"><g><g style="mix-blend-mode:passthrough"><rect x="0" y="0" width="28" height="28" rx="4" fill="#FFFFFF" fill-opacity="1"/></g><path d="M14.17429,8.00032135L14.61143,8.00032135C16.199289999999998,8.00899986,17.5178,8.113786,18.5663,8.315C18.7115,8.34289,18.835900000000002,8.435901,18.9038,8.567321L18.9244,8.612321L20.0709,11.53539L21.7857,11.53539L21.7857,11.856819999999999C21.785800000000002,12.19324,21.5265,12.47284,21.1911,12.49807L21.142899999999997,12.49968L20.4527,12.5C20.486800000000002,12.572,20.526699999999998,12.64143,20.5717,12.70668L20.6212,12.774180000000001L21.581899999999997,14.00621C21.698999999999998,14.15633,21.769,14.33773,21.783099999999997,14.52757L21.7857,14.59893L21.7857,19.8925C21.785800000000002,20.229,21.5265,20.5086,21.1911,20.5338L21.142899999999997,20.5354L18.6421,20.5354C18.3552,20.5355,18.1159,20.316000000000003,18.0912,20.030099999999997L18.0893,19.9822L18.0893,19.5579C18.0893,19.4968,18.046300000000002,19.4441,17.9864,19.4319L17.9607,19.4294L11.19464,19.4294C11.12364,19.4294,11.06607,19.4869,11.06607,19.5579L11.06607,19.9822C11.06607,20.287599999999998,10.81857,20.5354,10.51321,20.5354L7.642857,20.5354C7.287817,20.5354,7,20.2476,7,19.8925L7,14.59893C7.0000327873,14.38418,7.0717517,14.17558,7.203786,14.00621L8.164860000000001,12.774180000000001C8.23082,12.6892,8.2871,12.59713,8.33264,12.49968L7.642857,12.49968C7.287817,12.49968,7,12.21186,7,11.856819999999999L7,11.53539L8.7145,11.53539L9.86136,8.612321C9.92181,8.458353,10.05697,8.346123,10.21943,8.315C11.26793,8.113786,12.58611,8.00899986,14.174610000000001,8L14.17429,8.00032135ZM10.08571,15.071110000000001L7.9642859999999995,15.071110000000001L7.9642859999999995,15.39254C7.9642859999999995,15.74758,8.2521,16.03539,8.60714,16.03539L10.21429,16.03539L10.21429,15.19968C10.21429,15.12867,10.15672,15.071110000000001,10.08571,15.071110000000001ZM20.8214,15.071110000000001L18.7,15.071110000000001C18.6389,15.071100000000001,18.586199999999998,15.114090000000001,18.573999999999998,15.173960000000001L18.5714,15.19968L18.5714,16.03539L20.1786,16.03539C20.515,16.0355,20.794600000000003,15.77622,20.8198,15.440750000000001L20.8214,15.39254L20.8214,15.071110000000001ZM17.2857,15.071110000000001L11.5,15.071110000000001L11.5,15.39254C11.49989,15.728950000000001,11.759170000000001,16.00855,12.09464,16.03379L12.142859999999999,16.03539L16.64286,16.03539C16.97927,16.0355,17.2589,15.77622,17.284100000000002,15.440750000000001L17.2857,15.39254L17.2857,15.071110000000001Z" fill="#666666" fill-opacity="1"/></g></g></svg>