<svg xmlns="http://www.w3.org/2000/svg" xmlns:xlink="http://www.w3.org/1999/xlink" fill="none" version="1.1" width="16" height="16" viewBox="0 0 16 16"><g style="mix-blend-mode:passthrough"><g><g style="mix-blend-mode:passthrough"><rect x="0" y="0" width="16" height="16" rx="0" fill="#000000" fill-opacity="0"/></g><g style="mix-blend-mode:passthrough"><path d="M21.871650000000002,10.334482L17.37165,15.33448Q17.3387,15.371089999999999,17.29925,15.400559999999999Q17.2598,15.43003,17.21536,15.45124Q17.17091,15.47245,17.123179999999998,15.48459Q17.07546,15.49672,17.02628,15.499310000000001Q16.9771,15.5019,16.928359999999998,15.49484Q16.87963,15.48779,16.833199999999998,15.47136Q16.78678,15.454930000000001,16.74445,15.42976Q16.70212,15.404589999999999,16.66552,15.371649999999999Q16.64596,15.354040000000001,16.62835,15.33448L12.128353,10.334482L12.871647,9.665518L17.37165,14.66552L17,15L16.62835,14.66552L21.128349999999998,9.665518L21.871650000000002,10.334482Z" transform="matrix(-1,0,0,-1,25,20)" fill="#FFFFFF" fill-opacity="1"/></g></g></g></svg>