<svg xmlns="http://www.w3.org/2000/svg" xmlns:xlink="http://www.w3.org/1999/xlink" fill="none" version="1.1" width="28" height="28" viewBox="0 0 28 28"><clipPath id="master_svg0_2175_74680"><rect x="7" y="4.999537467956543" width="12.88888931274414" height="16" rx="0"/></clipPath><g style="mix-blend-mode:passthrough"><g><g style="mix-blend-mode:passthrough"><rect x="0" y="0" width="28" height="28" rx="4" fill="#FFFFFF" fill-opacity="1"/></g><g><g style="mix-blend-mode:passthrough"></g><g clip-path="url(#master_svg0_2175_74680)"><g><g><g><g><path d="M16.8660722265625,13.546547221862793C16.823842226562498,13.583880421862792,16.7838422265625,13.620325221862792,16.741622226562498,13.656102721862792C16.6971822265625,13.692769721862794,16.6549522265625,13.728991721862792,16.6105122265625,13.764547721862794C16.519402226562498,13.836991721862793,16.4260722265625,13.906547721862793,16.330512226562497,13.973214721862792L14.3594022265625,18.024327721862793L13.966072226562499,15.691657721862793L14.5505122265625,14.754107721862793C14.479402226562499,14.769657721862792,14.4082922265625,14.783877721862794,14.3349522265625,14.796547721862794C14.150512226562501,14.829217721862793,13.9638422265625,14.851657721862793,13.774952226562501,14.863217721862792C13.6705122265625,14.869877721862792,13.5660722265625,14.874547721862793,13.4594022265625,14.874547721862793C13.0549522265625,14.874547721862793,12.6616222265625,14.824987721862794,12.2838422265625,14.734547721862793L12.8771822265625,15.692327721862792L12.5060722265625,18.066767721862792L10.3216222265625,13.774325721862793C10.2216222265625,13.694325721862793,10.1238422265625,13.610325621862794,10.0305122265625,13.522547721862793L9.990512226562501,13.557658221862793C7.0660678265625,16.086767721862792,7.1060677865625,20.512547721862795,7.1082900135625,20.699437721862793L7.1105122365625,20.856327721862794L19.6260322265625,20.856327721862794L19.619432226562502,20.690327721862793C19.4127322265625,15.576987721862793,17.3683322265625,13.886102721862793,16.8660722265625,13.546547221862793Z" fill-rule="evenodd" fill="#666666" fill-opacity="1"/><path d="M13.4601091015625,5.133875846862793C10.8712191015625,5.133875846862793,8.7623291015625,7.241655846862793,8.7623291015625,9.831655846862793C8.7623291015625,12.422095846862792,10.8712191015625,14.529435846862793,13.4601091015625,14.529435846862793C16.051219101562502,14.529435846862793,18.1578891015625,12.422095846862792,18.1578891015625,9.831655846862793C18.1578891015625,7.241655846862793,16.051219101562502,5.133875846862793,13.4601091015625,5.133875846862793Z" fill-rule="evenodd" fill="#666666" fill-opacity="1"/></g></g></g></g></g></g></g></g></svg>