<svg xmlns="http://www.w3.org/2000/svg" xmlns:xlink="http://www.w3.org/1999/xlink" fill="none" version="1.1" width="20" height="20" viewBox="0 0 20 20"><g style="mix-blend-mode:passthrough"><g><g style="mix-blend-mode:passthrough"></g><g style="mix-blend-mode:passthrough"><path d="M1.6666666269302368,17.49989857292175L18.333366626930236,17.49989857292175L18.316666626930235,17.48319857292175L18.316666626930235,15.816498572921754L17.483366626930238,15.816498572921754L17.483366626930238,7.4831985729217525L15.816666626930237,7.4831985729217525L15.816666626930237,3.316534572921753C15.816666626930237,2.858201572921753,15.441666626930237,2.483201492921753,14.983366626930238,2.491534829921753L3.324996626930237,2.491534829921753C2.866666626930237,2.491534829921753,2.491666626930237,2.866534572921753,2.499999626930237,3.333201572921753L2.499999626930237,15.833198572921752L1.6666666269302368,15.833198572921752L1.6666666269302368,17.49989857292175ZM14.166666626930237,4.166688572921753L14.166666626930237,7.500028572921753L9.166666626930237,7.500028572921753L9.166666626930237,15.833398572921753L4.166666626930237,15.833398572921753L4.166666626930237,4.166688572921753L14.166666626930237,4.166688572921753ZM7.500076626930237,5.833198572921753L5.833416626930237,5.833198572921753L5.833416626930237,7.499858572921753L7.500076626930237,7.499858572921753L7.500076626930237,5.833198572921753ZM5.833416626930237,9.166688572921753L7.500076626930237,9.166688572921753L7.500076626930237,10.833358572921753L5.833416626930237,10.833358572921753L5.833416626930237,9.166688572921753ZM15.833366626930237,15.833398572921753L14.166766626930237,15.833398572921753L14.166766626930237,10.833358572921753L12.500066626930236,10.833358572921753L12.500066626930236,15.833398572921753L10.833416626930237,15.833398572921753L10.833416626930237,9.166688572921753L15.833366626930237,9.166688572921753L15.833366626930237,15.833398572921753ZM5.833416626930237,12.500198572921754L7.500076626930237,12.500198572921754L7.500076626930237,14.166898572921752L5.833416626930237,14.166898572921752L5.833416626930237,12.500198572921754Z" fill-rule="evenodd" fill="#FFFFFF" fill-opacity="1"/></g></g></g></svg>