<svg xmlns="http://www.w3.org/2000/svg" xmlns:xlink="http://www.w3.org/1999/xlink" fill="none" version="1.1" width="28" height="28" viewBox="0 0 28 28"><clipPath id="master_svg0_2175_77608"><rect x="4.5" y="5" width="19" height="19" rx="0"/></clipPath><g style="mix-blend-mode:passthrough"><g><g style="mix-blend-mode:passthrough"><rect x="0" y="0" width="28" height="28" rx="4" fill="#FFFFFF" fill-opacity="1"/></g><g clip-path="url(#master_svg0_2175_77608)"><g><path d="M13.70313,21.6101546875L7.067969,19.3093546875C6.9492188,19.264854687499998,6.875,19.160954687500002,6.875,19.0273546875L6.875,10.3289046875L13.70313,12.407034687500001L13.70313,21.6101546875ZM14.29688,21.6101546875L20.932000000000002,19.3093546875C21.050800000000002,19.264854687499998,21.125,19.160954687500002,21.125,19.0273546875L21.125,10.3289046875L14.29688,12.407034687500001L14.29688,21.6101546875ZM6.875,9.7351546875L14,11.813284687500001L21.125,9.7351546875L14.08906,7.4046874875C14.02969,7.3898437475,13.95547,7.3898437475,13.896090000000001,7.4046874875L6.875,9.7351546875Z" fill="#666666" fill-opacity="1"/></g></g></g></g></svg>