<svg xmlns="http://www.w3.org/2000/svg" xmlns:xlink="http://www.w3.org/1999/xlink" fill="none" version="1.1" width="28" height="28" viewBox="0 0 28 28"><clipPath id="master_svg0_2175_74663"><rect x="5" y="5" width="18" height="18" rx="0"/></clipPath><g style="mix-blend-mode:passthrough"><g><g style="mix-blend-mode:passthrough"><rect x="0" y="0" width="28" height="28" rx="4" fill="#FFFFFF" fill-opacity="1"/></g><g><g style="mix-blend-mode:passthrough"></g><g clip-path="url(#master_svg0_2175_74663)"><g><path d="M7.25,14L11.75,9.5L16.25,14L20.75,9.5L20.75,20.75L7.25,20.75L7.25,14Z" fill="#666666" fill-opacity="1"/><path d="M20.75,21.3128703125L7.250009,21.3128703125C6.939349,21.3128703125,6.68750944138,21.0609703125,6.68750944138,20.7503703125L6.68750944138,14.000330312500001C6.686644955,13.8508203125,6.745342,13.7071103125,6.850634,13.6009603125L11.35064,9.1009573125C11.57067,8.8791082125,11.92935,8.8791082125,12.14938,9.1009573125L16.25001,13.207210312499999L20.3506,9.1009573125C20.5124,8.9413502525,20.7543,8.8947459125,20.9638,8.9828319125C21.1738,9.0691213125,21.3114,9.2732493125,21.3125,9.5003323125L21.3125,20.7503703125C21.3125,21.0609703125,21.0607,21.3128703125,20.75,21.3128703125ZM7.81251,20.1878703125L20.1875,20.1878703125L20.1875,10.8559603125L16.64938,14.3997103125C16.42935,14.6215603125,16.07067,14.6215603125,15.85063,14.3997103125L11.75001,10.2934603125L7.81251,14.230960312499999L7.81251,20.1878703125Z" fill="#666666" fill-opacity="1"/></g></g></g></g></g></svg>