<svg xmlns="http://www.w3.org/2000/svg" xmlns:xlink="http://www.w3.org/1999/xlink" fill="none" version="1.1" width="28" height="28" viewBox="0 0 28 28"><clipPath id="master_svg0_2175_74711"><rect x="6" y="6" width="16" height="16" rx="0"/></clipPath><g style="mix-blend-mode:passthrough"><g><g style="mix-blend-mode:passthrough"><rect x="0" y="0" width="28" height="28" rx="4" fill="#FFFFFF" fill-opacity="1"/></g><g><g style="mix-blend-mode:passthrough"></g><g style="mix-blend-mode:passthrough"><path d="M14.000069860877991,7.0311716356994625C15.46371986087799,7.0282331356994625,16.66008986087799,8.195281435699464,16.66008986087799,9.621191435699462C16.66008986087799,11.049261435699464,15.460089860877991,12.217681435699463,13.993429860877992,12.217681435699463L13.98675986087799,12.217031435699463C12.513429860877991,12.210541435699463,11.32008986087799,11.048611435699463,11.32008986087799,9.614051435699462C11.32008986087799,8.179491435699463,12.513429860877991,7.017561435699463,13.98675986087799,7.017561435699463L14.000069860877991,7.0311716356994625ZM14.000069860877991,7.0311716356994625L14.000099860877992,7.031193035699463L13.993429860877992,7.031193035699463L14.000069860877991,7.0311716356994625ZM9.66659986087799,10.925971435699463L9.659929860877991,10.925971435699463L9.66656986087799,10.925931435699463L9.66659986087799,10.925971435699463ZM11.326599860877991,12.542281435699463C11.326599860877991,11.648651435699463,10.58351986087799,10.922971435699463,9.66656986087799,10.925931435699463L9.653269860877991,10.912341435699464C8.726599860877991,10.912341435699464,7.986598860877991,11.632861435699464,7.986598860877991,12.535141435699462C7.986598860877991,13.437421435699463,8.726599860877991,14.157951435699463,9.653269860877991,14.164441435699462L9.659929860877991,14.165091435699463C10.579929860877991,14.165091435699463,11.326599860877991,13.438071435699463,11.326599860877991,12.542281435699463ZM18.33332986087799,10.925931435699463C19.25022986087799,10.922971435699463,19.993329860877992,11.648651435699463,19.993329860877992,12.542281435699463C19.993329860877992,13.438071435699463,19.24672986087799,14.165091435699463,18.32662986087799,14.165091435699463L18.32002986087799,14.164441435699462C17.39332986087799,14.157951435699463,16.65334986087799,13.437421435699463,16.65334986087799,12.535141435699462C16.65334986087799,11.632861435699464,17.39332986087799,10.912341435699464,18.32002986087799,10.912341435699464L18.33332986087799,10.925931435699463ZM18.33332986087799,10.925931435699463L18.33332986087799,10.925971435699463L18.32662986087799,10.925971435699463L18.33332986087799,10.925931435699463ZM13.99993986087799,12.877201435699462C15.83688986087799,12.874231435699464,17.32662986087799,14.326921435699463,17.32662986087799,16.116351435699464L17.32662986087799,20.01106143569946L10.65995986087799,20.01106143569946L10.65995986087799,16.116351435699464C10.65328986087799,14.318271435699462,12.14662986087799,12.864241435699462,13.98662986087799,12.864241435699462L13.99993986087799,12.877201435699462ZM13.99993986087799,12.877201435699462L13.99995986087799,12.877221435699463L13.99328986087799,12.877221435699463L13.99993986087799,12.877201435699462ZM9.523899860877991,14.822671435699462C9.41806986087799,15.165341435699462,9.35190986087799,15.527181435699463,9.33199986087799,15.882601435699463L9.325329860877991,16.103301435699464L9.325329860877991,19.998061435699462L7.3253333208779905,19.998061435699462L7.3253333208779905,17.076961435699463L7.3186666567779906,17.070461435699464C7.3119999908779905,15.908571435699463,8.211999860877992,14.934881435699463,9.391999860877991,14.811551435699464L9.50532986087799,14.798571435699463L9.523899860877991,14.822671435699462ZM9.523899860877991,14.822671435699462C9.52437986087799,14.821131435699463,9.52484986087799,14.819581435699462,9.52532986087799,14.818041435699463L9.52532986087799,14.824531435699463L9.523899860877991,14.822671435699462ZM20.66132986087799,17.089961435699465C20.66132986087799,15.889051435699463,19.70132986087799,14.895891435699463,18.474729860877993,14.824491435699464L18.46802986087799,14.811511435699462C18.59472986087799,15.225651435699463,18.66132986087799,15.655361435699463,18.66132986087799,16.109751435699465L18.66132986087799,20.00446143569946L20.66132986087799,20.00446143569946L20.66132986087799,17.089961435699465Z" fill-rule="evenodd" fill="#FFFFFF" fill-opacity="1"/><path d="M14.000069860877991,7.0311716356994625C15.46371986087799,7.0282331356994625,16.66008986087799,8.195281435699464,16.66008986087799,9.621191435699462C16.66008986087799,11.049261435699464,15.460089860877991,12.217681435699463,13.993429860877992,12.217681435699463L13.98675986087799,12.217031435699463C12.513429860877991,12.210541435699463,11.32008986087799,11.048611435699463,11.32008986087799,9.614051435699462C11.32008986087799,8.179491435699463,12.513429860877991,7.017561435699463,13.98675986087799,7.017561435699463L14.000069860877991,7.0311716356994625ZM14.000069860877991,7.0311716356994625L14.000099860877992,7.031193035699463L13.993429860877992,7.031193035699463L14.000069860877991,7.0311716356994625ZM9.66659986087799,10.925971435699463L9.659929860877991,10.925971435699463L9.66656986087799,10.925931435699463L9.66659986087799,10.925971435699463ZM11.326599860877991,12.542281435699463C11.326599860877991,11.648651435699463,10.58351986087799,10.922971435699463,9.66656986087799,10.925931435699463L9.653269860877991,10.912341435699464C8.726599860877991,10.912341435699464,7.986598860877991,11.632861435699464,7.986598860877991,12.535141435699462C7.986598860877991,13.437421435699463,8.726599860877991,14.157951435699463,9.653269860877991,14.164441435699462L9.659929860877991,14.165091435699463C10.579929860877991,14.165091435699463,11.326599860877991,13.438071435699463,11.326599860877991,12.542281435699463ZM18.33332986087799,10.925931435699463C19.25022986087799,10.922971435699463,19.993329860877992,11.648651435699463,19.993329860877992,12.542281435699463C19.993329860877992,13.438071435699463,19.24672986087799,14.165091435699463,18.32662986087799,14.165091435699463L18.32002986087799,14.164441435699462C17.39332986087799,14.157951435699463,16.65334986087799,13.437421435699463,16.65334986087799,12.535141435699462C16.65334986087799,11.632861435699464,17.39332986087799,10.912341435699464,18.32002986087799,10.912341435699464L18.33332986087799,10.925931435699463ZM18.33332986087799,10.925931435699463L18.33332986087799,10.925971435699463L18.32662986087799,10.925971435699463L18.33332986087799,10.925931435699463ZM13.99993986087799,12.877201435699462C15.83688986087799,12.874231435699464,17.32662986087799,14.326921435699463,17.32662986087799,16.116351435699464L17.32662986087799,20.01106143569946L10.65995986087799,20.01106143569946L10.65995986087799,16.116351435699464C10.65328986087799,14.318271435699462,12.14662986087799,12.864241435699462,13.98662986087799,12.864241435699462L13.99993986087799,12.877201435699462ZM13.99993986087799,12.877201435699462L13.99995986087799,12.877221435699463L13.99328986087799,12.877221435699463L13.99993986087799,12.877201435699462ZM9.523899860877991,14.822671435699462C9.41806986087799,15.165341435699462,9.35190986087799,15.527181435699463,9.33199986087799,15.882601435699463L9.325329860877991,16.103301435699464L9.325329860877991,19.998061435699462L7.3253333208779905,19.998061435699462L7.3253333208779905,17.076961435699463L7.3186666567779906,17.070461435699464C7.3119999908779905,15.908571435699463,8.211999860877992,14.934881435699463,9.391999860877991,14.811551435699464L9.50532986087799,14.798571435699463L9.523899860877991,14.822671435699462ZM9.523899860877991,14.822671435699462C9.52437986087799,14.821131435699463,9.52484986087799,14.819581435699462,9.52532986087799,14.818041435699463L9.52532986087799,14.824531435699463L9.523899860877991,14.822671435699462ZM20.66132986087799,17.089961435699465C20.66132986087799,15.889051435699463,19.70132986087799,14.895891435699463,18.474729860877993,14.824491435699464L18.46802986087799,14.811511435699462C18.59472986087799,15.225651435699463,18.66132986087799,15.655361435699463,18.66132986087799,16.109751435699465L18.66132986087799,20.00446143569946L20.66132986087799,20.00446143569946L20.66132986087799,17.089961435699465Z" fill-rule="evenodd" fill="#666666" fill-opacity="1"/></g></g><g clip-path="url(#master_svg0_2175_74711)"><g></g></g></g></g></svg>