<svg xmlns="http://www.w3.org/2000/svg" xmlns:xlink="http://www.w3.org/1999/xlink" fill="none" version="1.1" width="14" height="14" viewBox="0 0 14 14"><g style="mix-blend-mode:passthrough"><g><g style="mix-blend-mode:passthrough"></g><g style="mix-blend-mode:passthrough"><path d="M1.1666666269302368,6.999996626930237C1.1666666269302368,10.221746626930237,3.778246626930237,12.833366626930237,6.999996626930237,12.833366626930237C10.221746626930237,12.833366626930237,12.833366626930237,10.221746626930237,12.833366626930237,6.999996626930237C12.833366626930237,3.778246626930237,10.221746626930237,1.1666666269302368,6.999996626930237,1.1666666269302368C3.778246626930237,1.1666666269302368,1.1666666269302368,3.778246626930237,1.1666666269302368,6.999996626930237ZM7.000026626930237,11.666566626930237L6.994196626930237,11.665966626930237L6.999466626930237,11.665966626930237L7.000026626930237,11.666566626930237ZM11.660866626930236,6.9993266269302366C11.660866626930236,9.570066626930236,9.569556626930236,11.663166626930236,6.999466626930237,11.665966626930237L6.988366626930237,11.654366626930237C4.410026626930237,11.660166626930236,2.321696626930237,9.565986626930236,2.321696626930237,6.9934866269302365C2.321696626930237,4.415156626930237,4.410026626930237,2.326826626930237,6.988366626930237,2.326826626930237L6.994196626930237,2.326826626930237C9.566696626930236,2.3326566269302367,11.660866626930236,4.420986626930237,11.660866626930236,6.9993266269302366ZM7.583226626930236,8.160616626930237L7.583226626930236,7.7872866269302365L7.542386626930237,7.745866626930237C8.265726626930237,7.530036626930237,8.814056626930237,6.935036626930237,8.965726626930238,6.194196626930236C9.187386626930238,5.091696626930236,8.469886626930236,4.0125366269302365,7.367386626930236,3.796696626930237C6.264886626930237,3.575036626930237,5.1857266269302364,4.292536626930237,4.969886626930236,5.400866626930237L4.969886626930236,5.406696626930237L6.119056626930237,5.640036626930237C6.200726626930237,5.231696626930237,6.562386626930237,4.940036626930237,6.982386626930237,4.940036626930237C7.466556626930237,4.940036626930237,7.857386626930237,5.330866626930237,7.863226626930237,5.815036626930237C7.863226626930237,6.299196626930237,7.472386626930237,6.690036626930237,6.994056626930237,6.695866626930237L6.994056626930237,6.6964466269302365C6.673226626930237,6.6964466269302365,6.410726626930237,6.958946626930237,6.4165566269302365,7.285616626930237L6.4165566269302365,8.160616626930237L7.583226626930236,8.160616626930237ZM7.583336626930237,9.916826626930236L7.583336626930237,8.750166626930238L6.416666626930237,8.750166626930238L6.416666626930237,9.916826626930236L7.583336626930237,9.916826626930236Z" fill-rule="evenodd" fill="#FFFFFF" fill-opacity="1"/></g></g></g></svg>