<svg xmlns="http://www.w3.org/2000/svg" xmlns:xlink="http://www.w3.org/1999/xlink" fill="none" version="1.1" width="14" height="14" viewBox="0 0 14 14"><g style="mix-blend-mode:passthrough"><g transform="matrix(-1,0,0,1,28,0)"><g style="mix-blend-mode:passthrough"></g><g style="mix-blend-mode:passthrough"><path d="M24.80916997138977,11.414116634559631L24.803329971389772,11.414116634559631C23.74166997138977,12.32991663455963,22.38832997138977,12.831616634559632,20.98832997138977,12.831616634559632C17.762499971389772,12.831616634559632,15.15499997138977,10.218246634559632,15.15499997138977,6.9982466345596315C15.15499997138977,3.7764966345596314,17.76657997138977,1.1649166345596313,20.98832997138977,1.1649166345596313C24.21007997138977,1.1649166345596313,26.82169997138977,3.7764966345596314,26.82169997138977,6.9982466345596315C26.82169997138977,8.240746634559631,26.43079997138977,9.399246634559631,25.765799971389768,10.346586634559632L23.90499997138977,6.9982466345596315L25.65499997138977,6.9982466345596315L25.65499997138977,6.9982466345596315C25.65499997138977,4.419916634559631,23.560829971389772,2.331586634559631,20.98832997138977,2.331586634559631C18.40999997138977,2.331586634559631,16.32166997138977,4.419916634559631,16.32166997138977,6.9982466345596315C16.32166997138977,9.570746634559631,18.40999997138977,11.664916634559631,20.98832997138977,11.664916634559631C22.18999997138977,11.664916634559631,23.34499997138977,11.198216634559632,24.214169971389772,10.364086634559632L24.791669971389773,11.408216634559631L24.80916997138977,11.414116634559631Z" fill="#FFFFFF" fill-opacity="1"/></g></g></g></svg>