<svg xmlns="http://www.w3.org/2000/svg" xmlns:xlink="http://www.w3.org/1999/xlink" fill="none" version="1.1" width="20" height="20" viewBox="0 0 20 20"><clipPath id="master_svg0_2175_77493"><rect x="0" y="0" width="20" height="20" rx="0"/></clipPath><g clip-path="url(#master_svg0_2175_77493)"><g><g><g><path d="M15.596715626460314,9.870710004291535C15.596715626460314,13.049820004291535,13.019415626460313,15.627150004291535,9.840475626460314,15.627150004291535C6.661005626460314,15.627150004291535,4.084015626460314,13.049820004291535,4.084015626460314,9.870710004291535C4.084015626460314,6.691420004291535,6.661005626460314,4.114250004291534,9.840475626460314,4.114250004291534C13.019415626460313,4.114250004291534,15.596715626460314,6.691420004291535,15.596715626460314,9.870710004291535Z" fill-rule="evenodd" fill="#FFFFFF" fill-opacity="1"/><path d="M9.382843751460314,2.4496715667915345L10.301427751460313,2.4496715667915345L10.301427751460313,0.037101566791534424L9.382843751460314,0.037101566791534424L9.382843751460314,2.4496715667915345Z" fill="#FFFFFF" fill-opacity="1"/><path d="M6.528965001460314,3.2132156292915344L5.7337450014603135,3.6725156292915346L4.527375001460314,1.5831306292915344L5.322950001460314,1.1240156292915344L6.528965001460314,3.2132156292915344Z" fill="#FFFFFF" fill-opacity="1"/><path d="M3.644404376460314,5.763002816791534L3.185294376460314,6.558402816791535L1.0957343764603138,5.352030816791535L1.5550263764603138,4.556632816791534L3.644404376460314,5.763002816791534Z" fill="#FFFFFF" fill-opacity="1"/><path d="M2.4205837514603137,9.412278460791535L2.4205837514603137,10.330685566791534L0.007843751460313797,10.330508566791535L0.007843751460313797,9.412101566791534L2.4205837514603137,9.412278460791535Z" fill="#FFFFFF" fill-opacity="1"/><path d="M3.185294376460314,13.184562504291534L3.644404376460314,13.979960504291535L1.5550263764603138,15.185982504291534L1.0957343764603138,14.390582504291535L3.185294376460314,13.184562504291534Z" fill="#FFFFFF" fill-opacity="1"/><path d="M5.734105001460314,16.070304691791534L6.529325001460314,16.529419691791535L5.322950001460314,18.618804691791535L4.527375001460314,18.159504691791533L5.734105001460314,16.070304691791534Z" fill="#FFFFFF" fill-opacity="1"/><path d="M9.383197539460314,17.293937504291534L10.301781751460314,17.293937504291534L10.301427751460313,19.706507504291533L9.382843751460314,19.706677504291534L9.383197539460314,17.293937504291534Z" fill="#FFFFFF" fill-opacity="1"/><path d="M13.156281251460314,16.529419691791535L13.951855251460314,16.070304691791534L15.157701251460313,18.159684691791533L14.362121251460314,18.619154691791536L13.156281251460314,16.529419691791535Z" fill="#FFFFFF" fill-opacity="1"/><path d="M16.039093751460314,13.979961504291534L16.498739751460313,13.184562504291534L18.587943751460315,14.390932504291534L18.128653751460313,15.186512504291535L16.039093751460314,13.979961504291534Z" fill="#FFFFFF" fill-opacity="1"/><path d="M17.263703126460314,10.330509566791534L17.263880020460313,9.412101566791534L19.676273126460313,9.412279135791534L19.676273126460313,10.330862566791534L17.263703126460314,10.330509566791534Z" fill="#FFFFFF" fill-opacity="1"/><path d="M16.498385751460315,6.558052816791534L16.039093751460314,5.762652816791535L18.128653751460313,4.556632816791534L18.587943751460315,5.352030816791535L16.498385751460315,6.558052816791534Z" fill="#FFFFFF" fill-opacity="1"/><path d="M13.951503251460315,3.6723356292915343L13.156281251460314,3.2130456292915346L14.362481251460313,1.1240156292915344L15.158051251460314,1.5829536292915345L13.951503251460315,3.6723356292915343Z" fill="#FFFFFF" fill-opacity="1"/></g></g></g></g></svg>