<svg xmlns="http://www.w3.org/2000/svg" xmlns:xlink="http://www.w3.org/1999/xlink" fill="none" version="1.1" width="20" height="20" viewBox="0 0 20 20"><clipPath id="master_svg0_2175_77512"><rect x="0" y="0" width="20" height="20" rx="0"/></clipPath><g clip-path="url(#master_svg0_2175_77512)"><g><g><g><path d="M9.844381876460314,15.628126566791535C6.664911876460314,15.628126566791535,4.087921876460314,13.050806566791534,4.087921876460314,9.871686566791535C4.087921876460314,6.692396566791535,6.664911876460314,4.115226566791534,9.844381876460314,4.115226566791534" fill-rule="evenodd" fill="#FFFFFF" fill-opacity="1"/><path d="M9.841828126460314,4.115226566791534C13.020768126460315,4.115226566791534,15.598108126460314,6.692396566791535,15.598108126460314,9.871686566791535C15.598108126460314,13.050806566791534,13.020768126460315,15.628126566791535,9.841828126460314,15.628126566791535" fill-rule="evenodd" fill="#FFFFFF" fill-opacity="0.5"/><path d="M9.382843751460314,2.4496715667915345L10.301427751460313,2.4496715667915345L10.301427751460313,0.037101566791534424L9.382843751460314,0.037101566791534424L9.382843751460314,2.4496715667915345Z" fill="#FFFFFF" fill-opacity="1"/><path d="M9.857453126460314,2.4496715667915345L10.299931126460313,2.4496715667915345L10.299931126460313,0.037101566791534424L9.857453126460314,0.037101566791534424L9.857453126460314,2.4496715667915345Z" fill="#FFFFFF" fill-opacity="0.5"/><path d="M6.528965001460314,3.2151687542915344L5.7337450014603135,3.6744687542915346L4.527375001460314,1.5850837542915344L5.322950001460314,1.1259687542915344L6.528965001460314,3.2151687542915344Z" fill="#FFFFFF" fill-opacity="1"/><path d="M3.644404376460314,5.762026254291534L3.185294376460314,6.557426254291535L1.0957343764603138,5.351054254291535L1.5550263764603138,4.555656254291534L3.644404376460314,5.762026254291534Z" fill="#FFFFFF" fill-opacity="1"/><path d="M2.4205837514603137,9.412278460791535L2.4205837514603137,10.330685566791534L0.007843751460313797,10.330508566791535L0.007843751460313797,9.412101566791534L2.4205837514603137,9.412278460791535Z" fill="#FFFFFF" fill-opacity="1"/><path d="M3.185294376460314,13.184562504291534L3.644404376460314,13.979960504291535L1.5550263764603138,15.185982504291534L1.0957343764603138,14.390582504291535L3.185294376460314,13.184562504291534Z" fill="#FFFFFF" fill-opacity="1"/><path d="M5.734105001460314,16.069328129291534L6.529325001460314,16.528443129291535L5.322950001460314,18.617828129291535L4.527375001460314,18.158528129291533L5.734105001460314,16.069328129291534Z" fill="#FFFFFF" fill-opacity="1"/><path d="M9.383197539460314,17.291984379291534L10.301781751460314,17.291984379291534L10.301427751460313,19.704554379291533L9.382843751460314,19.704724379291534L9.383197539460314,17.291984379291534Z" fill="#FFFFFF" fill-opacity="1"/><path d="M9.857623268460314,17.291984379291534L10.299931126460313,17.291984379291534L10.299760126460313,19.704554379291533L9.857453126460314,19.704724379291534L9.857623268460314,17.291984379291534Z" fill="#FFFFFF" fill-opacity="0.5"/><path d="M13.156281251460314,16.528443129291535L13.951855251460314,16.069328129291534L15.157701251460313,18.158708129291533L14.362121251460314,18.618178129291536L13.156281251460314,16.528443129291535Z" fill="#FFFFFF" fill-opacity="0.5"/><path d="M16.041046876460314,13.979961504291534L16.500692876460313,13.184562504291534L18.589896876460315,14.390932504291534L18.130606876460313,15.186512504291535L16.041046876460314,13.979961504291534Z" fill="#FFFFFF" fill-opacity="0.5"/><path d="M17.263703126460314,10.330509566791534L17.263880020460313,9.412101566791534L19.676273126460313,9.412279135791534L19.676273126460313,10.330862566791534L17.263703126460314,10.330509566791534Z" fill="#FFFFFF" fill-opacity="0.5"/><path d="M16.500338876460315,6.557076254291534L16.041046876460314,5.761676254291535L18.130606876460313,4.555656254291534L18.589896876460315,5.351054254291535L16.500338876460315,6.557076254291534Z" fill="#FFFFFF" fill-opacity="0.5"/><path d="M13.951503251460315,3.6742887542915343L13.156281251460314,3.2149987542915346L14.362471251460313,1.1259687542915344L15.158051251460314,1.5849067542915345L13.951503251460315,3.6742887542915343Z" fill="#FFFFFF" fill-opacity="0.5"/></g></g></g></g></svg>