<svg xmlns="http://www.w3.org/2000/svg" xmlns:xlink="http://www.w3.org/1999/xlink" fill="none" version="1.1" width="20" height="20" viewBox="0 0 20 20"><g style="mix-blend-mode:passthrough"><g><g style="mix-blend-mode:passthrough"></g><g style="mix-blend-mode:passthrough"><path d="M9.999996626930237,18.333366626930236C5.397496626930237,18.333366626930236,1.6666666269302368,14.602466626930237,1.6666666269302368,9.999996626930237C1.6666666269302368,5.397496626930237,5.397496626930237,1.6666666269302368,9.999996626930237,1.6666666269302368C14.602466626930237,1.6666666269302368,18.333366626930236,5.397496626930237,18.333366626930236,9.999996626930237C18.333366626930236,14.602466626930237,14.602466626930237,18.333366626930236,9.999996626930237,18.333366626930236ZM9.991566626930236,16.665566626930236L9.999906626930237,16.666366626930238L9.999106626930237,16.665566626930236C13.670666626930236,16.661466626930235,16.658266626930235,13.671366626930237,16.658266626930235,9.998896626930236C16.658266626930235,6.315556626930237,13.666566626930237,3.332226626930237,9.991566626930236,3.323896626930237L9.983236626930237,3.323896626930237C6.299906626930237,3.323896626930237,3.3165666269302365,6.307226626930237,3.3165666269302365,9.990556626930237C3.3165666269302365,13.665566626930238,6.299906626930237,16.657266626930237,9.983236626930237,16.648866626930236L9.999106626930237,16.665566626930236L9.991566626930236,16.665566626930236ZM10.833336626930237,10.000326626930237L14.166666626930237,10.000326626930237L14.166666626930237,11.666966626930236L9.166666626930237,11.666966626930236L9.166666626930237,5.833656626930237L10.833336626930237,5.833656626930237L10.833336626930237,10.000326626930237Z" fill-rule="evenodd" fill="#FFFFFF" fill-opacity="1"/></g></g></g></svg>