<svg xmlns="http://www.w3.org/2000/svg" xmlns:xlink="http://www.w3.org/1999/xlink" fill="none" version="1.1" width="16" height="16" viewBox="0 0 16 16"><g style="mix-blend-mode:passthrough"><g><g style="mix-blend-mode:passthrough"><rect x="0" y="0" width="16" height="16" rx="0" fill="#000000" fill-opacity="0"/></g><g style="mix-blend-mode:passthrough"><path d="M12.87165,6.334482L8.371649999999999,11.33448Q8.3387,11.371089999999999,8.29925,11.400559999999999Q8.2598,11.43003,8.21536,11.45124Q8.17091,11.47245,8.12318,11.48459Q8.07546,11.49672,8.02628,11.499310000000001Q7.9771,11.5019,7.92836,11.49484Q7.87963,11.48779,7.8332,11.47136Q7.78678,11.454930000000001,7.74445,11.42976Q7.70212,11.404589999999999,7.66552,11.371649999999999Q7.64596,11.354040000000001,7.62835,11.33448L3.128353,6.334482L3.871647,5.665518L8.371649999999999,10.66552L8,11L7.62835,10.66552L12.12835,5.665518L12.87165,6.334482Z" fill="#FFFFFF" fill-opacity="1"/></g></g></g></svg>