<svg xmlns="http://www.w3.org/2000/svg" xmlns:xlink="http://www.w3.org/1999/xlink" fill="none" version="1.1" width="28" height="28" viewBox="0 0 28 28"><clipPath id="master_svg0_2175_74612"><rect x="6" y="6" width="16" height="16" rx="0"/></clipPath><g style="mix-blend-mode:passthrough"><g><g style="mix-blend-mode:passthrough"><rect x="0" y="0" width="28" height="28" rx="4" fill="#FFFFFF" fill-opacity="1"/></g><g clip-path="url(#master_svg0_2175_74612)"><g><path d="M12.991520000000001,14.26271L10.703389999999999,17.3136C10.44916,17.4407,10.44916,17.6949,10.576270000000001,17.949199999999998C10.703389999999999,18.203400000000002,10.95763,18.3305,11.211870000000001,18.3305C11.59323,18.3305,11.847470000000001,18.5848,11.847470000000001,18.9661L11.847470000000001,20.3644C11.847470000000001,20.7458,12.22881,21,12.48306,21L14.51695,21C14.77119,21,15.15255,20.7458,15.15255,20.3644L15.15255,18.9661C15.15255,18.839,15.15255,18.7119,15.27967,18.5848C15.40679,18.4576,15.66101,18.3305,15.78813,18.3305C16.0424,18.3305,16.296599999999998,18.203400000000002,16.4237,17.949199999999998C16.550800000000002,17.6949,16.550800000000002,17.4407,16.296599999999998,17.3136L14.00848,14.26271C13.88136,14.1356,13.75424,14.00848,13.5,14.00848C13.24576,14.00848,13.11864,14.1356,12.991520000000001,14.26271ZM12.991520000000001,12.73729L10.703389999999999,9.686440000000001C10.44916,9.55932,10.44916,9.30508,10.576270000000001,9.05084C10.703389999999999,8.79661,10.95763,8.66949,11.211870000000001,8.66949C11.338989999999999,8.66949,11.59323,8.54237,11.72033,8.41525C11.847439999999999,8.28813,11.84745,8.161010000000001,11.84745,8.03389L11.84745,6.635596C11.84745,6.508477,11.97457,6.381357,12.10169,6.254238C12.22881,6.127119,12.35593,6,12.48305,6L14.51695,6C14.77119,6,15.15255,6.254238,15.15255,6.635596L15.15255,8.03389C15.15255,8.41525,15.40677,8.66949,15.78815,8.66949C16.4237,8.66949,16.678,9.30508,16.296599999999998,9.686440000000001L14.00848,12.73728C13.88136,12.8644,13.75424,12.991520000000001,13.5,12.991520000000001C13.24576,12.991520000000001,13.11864,12.8644,12.991520000000001,12.73729ZM12.73728,12.991520000000001C12.991520000000001,13.24576,12.991520000000001,13.75424,12.73728,14.00848L9.686440000000001,16.296599999999998C9.55932,16.550800000000002,9.30508,16.550800000000002,9.05084,16.4237C8.79661,16.296599999999998,8.66949,16.0424,8.66949,15.78813C8.66949,15.66101,8.54237,15.40677,8.41525,15.27967C8.28813,15.15256,8.161010000000001,15.15255,8.03389,15.15255L6.635596,15.15255C6.508477,15.15255,6.381357,15.02543,6.254238,14.89831C6.127119,14.77119,6,14.64407,6,14.51695L6,12.48305C6,12.10169,6.254238,11.84745,6.635596,11.84745L8.03389,11.84745C8.161010000000001,11.84745,8.28813,11.84745,8.41525,11.72033C8.54237,11.59321,8.66949,11.338989999999999,8.66949,11.211870000000001C8.66949,10.95763,8.79661,10.703389999999999,9.05084,10.576270000000001C9.30508,10.44915,9.55932,10.44915,9.686440000000001,10.703389999999999L12.73728,12.991520000000001ZM14.26271,12.991520000000001L17.3136,10.703389999999999C17.4407,10.44916,17.6949,10.44916,17.949199999999998,10.576270000000001C18.203400000000002,10.703389999999999,18.3305,10.95763,18.3305,11.211870000000001C18.3305,11.59323,18.5848,11.847470000000001,18.9661,11.847470000000001L20.3644,11.847470000000001C20.491500000000002,11.847470000000001,20.6186,11.97457,20.7458,12.10169C20.8729,12.22881,21,12.35593,21,12.48305L21,14.51695C21,14.77119,20.7458,15.15255,20.3644,15.15255L18.9661,15.15255C18.839,15.15255,18.7119,15.15255,18.5848,15.27967C18.4576,15.40679,18.3305,15.66101,18.3305,15.78813C18.3305,16.0424,18.203400000000002,16.296599999999998,17.949199999999998,16.4237C17.6949,16.550800000000002,17.4407,16.550800000000002,17.3136,16.296599999999998L14.26271,14.00848C14.1356,13.88136,14.00848,13.75424,14.00848,13.5C14.00848,13.24576,14.1356,13.11864,14.26271,12.991520000000001Z" fill="#666666" fill-opacity="1"/></g></g></g></g></svg>